<mxfile host="app.diagrams.net" agent="Mozilla/5.0 (Windows NT 10.0; Win64; x64) AppleWebKit/537.36 (KHTML, like Gecko) Chrome/138.0.0.0 Safari/537.36" version="28.2.3">
  <diagram name="Página-1" id="ty4T6BETJSiOEMqTfMGO">
    <mxGraphModel dx="1426" dy="785" grid="1" gridSize="10" guides="1" tooltips="1" connect="1" arrows="1" fold="1" page="1" pageScale="1" pageWidth="1654" pageHeight="2336" math="0" shadow="0">
      <root>
        <mxCell id="0" />
        <mxCell id="1" parent="0" />
        <mxCell id="D6eEvAZ0RT7tWCVIShG_-5" value="Funcionario" style="whiteSpace=wrap;html=1;align=center;" vertex="1" parent="1">
          <mxGeometry x="230" y="355" width="110" height="50" as="geometry" />
        </mxCell>
        <mxCell id="D6eEvAZ0RT7tWCVIShG_-6" value="PROCECTO" style="whiteSpace=wrap;html=1;align=center;" vertex="1" parent="1">
          <mxGeometry x="645" y="690" width="110" height="50" as="geometry" />
        </mxCell>
        <mxCell id="D6eEvAZ0RT7tWCVIShG_-7" value="Departamento" style="whiteSpace=wrap;html=1;align=center;" vertex="1" parent="1">
          <mxGeometry x="910" y="400" width="110" height="50" as="geometry" />
        </mxCell>
        <mxCell id="D6eEvAZ0RT7tWCVIShG_-9" value="DataNasc" style="ellipse;whiteSpace=wrap;html=1;" vertex="1" parent="1">
          <mxGeometry x="230" y="430" width="130" height="70" as="geometry" />
        </mxCell>
        <mxCell id="D6eEvAZ0RT7tWCVIShG_-10" value="Nome" style="ellipse;whiteSpace=wrap;html=1;" vertex="1" parent="1">
          <mxGeometry x="80" y="330" width="130" height="70" as="geometry" />
        </mxCell>
        <mxCell id="D6eEvAZ0RT7tWCVIShG_-11" value="NumCC" style="ellipse;whiteSpace=wrap;html=1;" vertex="1" parent="1">
          <mxGeometry x="130" y="260" width="130" height="75" as="geometry" />
        </mxCell>
        <mxCell id="D6eEvAZ0RT7tWCVIShG_-12" value="HorasProj" style="ellipse;whiteSpace=wrap;html=1;" vertex="1" parent="1">
          <mxGeometry x="260" y="260" width="130" height="70" as="geometry" />
        </mxCell>
        <mxCell id="D6eEvAZ0RT7tWCVIShG_-13" value="Salário" style="ellipse;whiteSpace=wrap;html=1;" vertex="1" parent="1">
          <mxGeometry x="375" y="300" width="130" height="70" as="geometry" />
        </mxCell>
        <mxCell id="D6eEvAZ0RT7tWCVIShG_-14" value="Email?" style="ellipse;whiteSpace=wrap;html=1;" vertex="1" parent="1">
          <mxGeometry x="100" y="405" width="130" height="70" as="geometry" />
        </mxCell>
        <mxCell id="D6eEvAZ0RT7tWCVIShG_-15" value="" style="endArrow=none;html=1;rounded=0;" edge="1" parent="1" source="D6eEvAZ0RT7tWCVIShG_-10">
          <mxGeometry width="50" height="50" relative="1" as="geometry">
            <mxPoint x="210" y="425" as="sourcePoint" />
            <mxPoint x="230" y="375" as="targetPoint" />
          </mxGeometry>
        </mxCell>
        <mxCell id="D6eEvAZ0RT7tWCVIShG_-16" value="" style="endArrow=none;html=1;rounded=0;exitX=1;exitY=0.5;exitDx=0;exitDy=0;entryX=0.038;entryY=0.657;entryDx=0;entryDy=0;entryPerimeter=0;" edge="1" parent="1" source="D6eEvAZ0RT7tWCVIShG_-5" target="D6eEvAZ0RT7tWCVIShG_-13">
          <mxGeometry width="50" height="50" relative="1" as="geometry">
            <mxPoint x="330" y="425" as="sourcePoint" />
            <mxPoint x="380" y="375" as="targetPoint" />
          </mxGeometry>
        </mxCell>
        <mxCell id="D6eEvAZ0RT7tWCVIShG_-17" value="" style="endArrow=none;html=1;rounded=0;" edge="1" parent="1" source="D6eEvAZ0RT7tWCVIShG_-9">
          <mxGeometry width="50" height="50" relative="1" as="geometry">
            <mxPoint x="280" y="455" as="sourcePoint" />
            <mxPoint x="330" y="405" as="targetPoint" />
          </mxGeometry>
        </mxCell>
        <mxCell id="D6eEvAZ0RT7tWCVIShG_-18" value="" style="endArrow=none;html=1;rounded=0;exitX=0.608;exitY=0.043;exitDx=0;exitDy=0;exitPerimeter=0;" edge="1" parent="1" source="D6eEvAZ0RT7tWCVIShG_-14">
          <mxGeometry width="50" height="50" relative="1" as="geometry">
            <mxPoint x="200" y="455" as="sourcePoint" />
            <mxPoint x="250" y="405" as="targetPoint" />
          </mxGeometry>
        </mxCell>
        <mxCell id="D6eEvAZ0RT7tWCVIShG_-19" value="" style="endArrow=none;html=1;rounded=0;" edge="1" parent="1" target="D6eEvAZ0RT7tWCVIShG_-12">
          <mxGeometry width="50" height="50" relative="1" as="geometry">
            <mxPoint x="300" y="355" as="sourcePoint" />
            <mxPoint x="330" y="325" as="targetPoint" />
          </mxGeometry>
        </mxCell>
        <mxCell id="D6eEvAZ0RT7tWCVIShG_-20" value="" style="endArrow=none;html=1;rounded=0;entryX=0.685;entryY=1;entryDx=0;entryDy=0;entryPerimeter=0;" edge="1" parent="1" target="D6eEvAZ0RT7tWCVIShG_-11">
          <mxGeometry width="50" height="50" relative="1" as="geometry">
            <mxPoint x="250" y="355" as="sourcePoint" />
            <mxPoint x="300" y="305" as="targetPoint" />
          </mxGeometry>
        </mxCell>
        <mxCell id="D6eEvAZ0RT7tWCVIShG_-21" value="Nome" style="ellipse;whiteSpace=wrap;html=1;" vertex="1" parent="1">
          <mxGeometry x="1050" y="370" width="130" height="70" as="geometry" />
        </mxCell>
        <mxCell id="D6eEvAZ0RT7tWCVIShG_-22" value="" style="endArrow=none;html=1;rounded=0;exitX=1;exitY=0.5;exitDx=0;exitDy=0;" edge="1" parent="1">
          <mxGeometry width="50" height="50" relative="1" as="geometry">
            <mxPoint x="1020" y="427.5" as="sourcePoint" />
            <mxPoint x="1060" y="422.5" as="targetPoint" />
          </mxGeometry>
        </mxCell>
        <mxCell id="D6eEvAZ0RT7tWCVIShG_-24" value="" style="endArrow=none;html=1;rounded=0;entryX=0.977;entryY=0.686;entryDx=0;entryDy=0;entryPerimeter=0;" edge="1" parent="1" source="D6eEvAZ0RT7tWCVIShG_-7">
          <mxGeometry width="50" height="50" relative="1" as="geometry">
            <mxPoint x="839.2893218813452" y="475" as="sourcePoint" />
            <mxPoint x="877.0100000000002" y="413.02" as="targetPoint" />
          </mxGeometry>
        </mxCell>
        <mxCell id="D6eEvAZ0RT7tWCVIShG_-27" value="Localização" style="ellipse;shape=doubleEllipse;margin=3;whiteSpace=wrap;html=1;align=center;" vertex="1" parent="1">
          <mxGeometry x="750" y="385" width="130" height="55" as="geometry" />
        </mxCell>
        <mxCell id="D6eEvAZ0RT7tWCVIShG_-28" value="DataInicio" style="ellipse;whiteSpace=wrap;html=1;" vertex="1" parent="1">
          <mxGeometry x="745" y="610" width="130" height="70" as="geometry" />
        </mxCell>
        <mxCell id="D6eEvAZ0RT7tWCVIShG_-29" value="Nome" style="ellipse;whiteSpace=wrap;html=1;" vertex="1" parent="1">
          <mxGeometry x="505" y="625" width="130" height="65" as="geometry" />
        </mxCell>
        <mxCell id="D6eEvAZ0RT7tWCVIShG_-34" value="" style="endArrow=none;html=1;rounded=0;exitX=1;exitY=1;exitDx=0;exitDy=0;" edge="1" parent="1" source="D6eEvAZ0RT7tWCVIShG_-29">
          <mxGeometry width="50" height="50" relative="1" as="geometry">
            <mxPoint x="595" y="760" as="sourcePoint" />
            <mxPoint x="645" y="710" as="targetPoint" />
          </mxGeometry>
        </mxCell>
        <mxCell id="D6eEvAZ0RT7tWCVIShG_-35" value="" style="endArrow=none;html=1;rounded=0;" edge="1" parent="1" target="D6eEvAZ0RT7tWCVIShG_-28">
          <mxGeometry width="50" height="50" relative="1" as="geometry">
            <mxPoint x="755" y="720" as="sourcePoint" />
            <mxPoint x="805" y="670" as="targetPoint" />
          </mxGeometry>
        </mxCell>
        <mxCell id="D6eEvAZ0RT7tWCVIShG_-39" value="" style="endArrow=none;html=1;rounded=0;" edge="1" parent="1">
          <mxGeometry width="50" height="50" relative="1" as="geometry">
            <mxPoint x="175" y="310" as="sourcePoint" />
            <mxPoint x="255" y="310" as="targetPoint" />
          </mxGeometry>
        </mxCell>
        <mxCell id="D6eEvAZ0RT7tWCVIShG_-40" value="" style="endArrow=none;html=1;rounded=0;" edge="1" parent="1" target="D6eEvAZ0RT7tWCVIShG_-41">
          <mxGeometry width="50" height="50" relative="1" as="geometry">
            <mxPoint x="340" y="400" as="sourcePoint" />
            <mxPoint x="400" y="410" as="targetPoint" />
          </mxGeometry>
        </mxCell>
        <mxCell id="D6eEvAZ0RT7tWCVIShG_-41" value="Supervisor?" style="ellipse;whiteSpace=wrap;html=1;" vertex="1" parent="1">
          <mxGeometry x="390" y="372.5" width="120" height="65" as="geometry" />
        </mxCell>
        <mxCell id="D6eEvAZ0RT7tWCVIShG_-45" value="" style="endArrow=none;html=1;rounded=0;" edge="1" parent="1">
          <mxGeometry width="50" height="50" relative="1" as="geometry">
            <mxPoint x="340" y="410" as="sourcePoint" />
            <mxPoint x="400" y="450" as="targetPoint" />
          </mxGeometry>
        </mxCell>
        <mxCell id="D6eEvAZ0RT7tWCVIShG_-46" value="Departamento" style="ellipse;whiteSpace=wrap;html=1;" vertex="1" parent="1">
          <mxGeometry x="375" y="440" width="120" height="65" as="geometry" />
        </mxCell>
        <mxCell id="D6eEvAZ0RT7tWCVIShG_-47" value="" style="endArrow=none;html=1;rounded=0;" edge="1" parent="1">
          <mxGeometry width="50" height="50" relative="1" as="geometry">
            <mxPoint x="830" y="390" as="sourcePoint" />
            <mxPoint x="830" y="340" as="targetPoint" />
          </mxGeometry>
        </mxCell>
        <mxCell id="D6eEvAZ0RT7tWCVIShG_-48" value="" style="endArrow=none;html=1;rounded=0;exitX=0.425;exitY=0.067;exitDx=0;exitDy=0;exitPerimeter=0;" edge="1" parent="1" source="D6eEvAZ0RT7tWCVIShG_-50">
          <mxGeometry width="50" height="50" relative="1" as="geometry">
            <mxPoint x="800" y="490" as="sourcePoint" />
            <mxPoint x="810" y="440" as="targetPoint" />
          </mxGeometry>
        </mxCell>
        <mxCell id="D6eEvAZ0RT7tWCVIShG_-49" value="Num" style="ellipse;whiteSpace=wrap;html=1;" vertex="1" parent="1">
          <mxGeometry x="770" y="285" width="120" height="60" as="geometry" />
        </mxCell>
        <mxCell id="D6eEvAZ0RT7tWCVIShG_-50" value="Rua" style="ellipse;whiteSpace=wrap;html=1;" vertex="1" parent="1">
          <mxGeometry x="775" y="465" width="120" height="60" as="geometry" />
        </mxCell>
        <mxCell id="D6eEvAZ0RT7tWCVIShG_-51" value="Andar?" style="ellipse;whiteSpace=wrap;html=1;" vertex="1" parent="1">
          <mxGeometry x="620" y="325" width="120" height="60" as="geometry" />
        </mxCell>
        <mxCell id="D6eEvAZ0RT7tWCVIShG_-52" value="" style="endArrow=none;html=1;rounded=0;exitX=1;exitY=1;exitDx=0;exitDy=0;" edge="1" parent="1" source="D6eEvAZ0RT7tWCVIShG_-51">
          <mxGeometry width="50" height="50" relative="1" as="geometry">
            <mxPoint x="710" y="450" as="sourcePoint" />
            <mxPoint x="760" y="400" as="targetPoint" />
          </mxGeometry>
        </mxCell>
        <mxCell id="D6eEvAZ0RT7tWCVIShG_-53" value="Localidade" style="ellipse;whiteSpace=wrap;html=1;" vertex="1" parent="1">
          <mxGeometry x="620" y="445" width="120" height="60" as="geometry" />
        </mxCell>
        <mxCell id="D6eEvAZ0RT7tWCVIShG_-54" value="" style="endArrow=none;html=1;rounded=0;exitX=1;exitY=0;exitDx=0;exitDy=0;" edge="1" parent="1" source="D6eEvAZ0RT7tWCVIShG_-53">
          <mxGeometry width="50" height="50" relative="1" as="geometry">
            <mxPoint x="710" y="480" as="sourcePoint" />
            <mxPoint x="760" y="430" as="targetPoint" />
          </mxGeometry>
        </mxCell>
        <mxCell id="D6eEvAZ0RT7tWCVIShG_-57" value="" style="endArrow=none;html=1;rounded=0;" edge="1" parent="1">
          <mxGeometry width="50" height="50" relative="1" as="geometry">
            <mxPoint x="1150" y="412" as="sourcePoint" />
            <mxPoint x="1070" y="412" as="targetPoint" />
          </mxGeometry>
        </mxCell>
        <mxCell id="D6eEvAZ0RT7tWCVIShG_-58" value="" style="endArrow=none;html=1;rounded=0;" edge="1" parent="1">
          <mxGeometry width="50" height="50" relative="1" as="geometry">
            <mxPoint x="610" y="670" as="sourcePoint" />
            <mxPoint x="530" y="670" as="targetPoint" />
          </mxGeometry>
        </mxCell>
        <mxCell id="D6eEvAZ0RT7tWCVIShG_-59" value="" style="endArrow=none;html=1;rounded=0;" edge="1" parent="1">
          <mxGeometry width="50" height="50" relative="1" as="geometry">
            <mxPoint x="835" y="730" as="sourcePoint" />
            <mxPoint x="755" y="730" as="targetPoint" />
          </mxGeometry>
        </mxCell>
        <mxCell id="D6eEvAZ0RT7tWCVIShG_-60" value="DataFim" style="ellipse;whiteSpace=wrap;html=1;" vertex="1" parent="1">
          <mxGeometry x="827" y="690" width="130" height="70" as="geometry" />
        </mxCell>
        <mxCell id="D6eEvAZ0RT7tWCVIShG_-61" value="Director" style="ellipse;whiteSpace=wrap;html=1;" vertex="1" parent="1">
          <mxGeometry x="697" y="780" width="130" height="70" as="geometry" />
        </mxCell>
        <mxCell id="D6eEvAZ0RT7tWCVIShG_-62" value="Departamento" style="ellipse;whiteSpace=wrap;html=1;" vertex="1" parent="1">
          <mxGeometry x="530" y="770" width="130" height="70" as="geometry" />
        </mxCell>
        <mxCell id="D6eEvAZ0RT7tWCVIShG_-63" value="" style="endArrow=none;html=1;rounded=0;exitX=1;exitY=0;exitDx=0;exitDy=0;" edge="1" parent="1" source="D6eEvAZ0RT7tWCVIShG_-62">
          <mxGeometry width="50" height="50" relative="1" as="geometry">
            <mxPoint x="620" y="790" as="sourcePoint" />
            <mxPoint x="670" y="740" as="targetPoint" />
          </mxGeometry>
        </mxCell>
        <mxCell id="D6eEvAZ0RT7tWCVIShG_-64" value="" style="endArrow=none;html=1;rounded=0;" edge="1" parent="1" source="D6eEvAZ0RT7tWCVIShG_-61">
          <mxGeometry width="50" height="50" relative="1" as="geometry">
            <mxPoint x="680" y="790" as="sourcePoint" />
            <mxPoint x="730" y="740" as="targetPoint" />
          </mxGeometry>
        </mxCell>
        <mxCell id="D6eEvAZ0RT7tWCVIShG_-65" value="" style="endArrow=none;html=1;rounded=0;" edge="1" parent="1">
          <mxGeometry width="50" height="50" relative="1" as="geometry">
            <mxPoint x="415" y="740" as="sourcePoint" />
            <mxPoint x="645" y="720" as="targetPoint" />
          </mxGeometry>
        </mxCell>
        <mxCell id="D6eEvAZ0RT7tWCVIShG_-66" value="Trabalho" style="ellipse;shape=doubleEllipse;margin=3;whiteSpace=wrap;html=1;align=center;" vertex="1" parent="1">
          <mxGeometry x="300" y="710" width="120" height="60" as="geometry" />
        </mxCell>
        <mxCell id="D6eEvAZ0RT7tWCVIShG_-67" value="" style="endArrow=none;html=1;rounded=0;" edge="1" parent="1">
          <mxGeometry width="50" height="50" relative="1" as="geometry">
            <mxPoint x="280" y="810" as="sourcePoint" />
            <mxPoint x="330" y="760" as="targetPoint" />
          </mxGeometry>
        </mxCell>
        <mxCell id="D6eEvAZ0RT7tWCVIShG_-68" value="Horas" style="ellipse;whiteSpace=wrap;html=1;" vertex="1" parent="1">
          <mxGeometry x="190" y="800" width="130" height="60" as="geometry" />
        </mxCell>
        <mxCell id="D6eEvAZ0RT7tWCVIShG_-69" value="Horas" style="ellipse;whiteSpace=wrap;html=1;" vertex="1" parent="1">
          <mxGeometry x="130" y="695" width="130" height="60" as="geometry" />
        </mxCell>
        <mxCell id="D6eEvAZ0RT7tWCVIShG_-70" value="" style="endArrow=none;html=1;rounded=0;exitX=0.969;exitY=0.617;exitDx=0;exitDy=0;exitPerimeter=0;" edge="1" parent="1" source="D6eEvAZ0RT7tWCVIShG_-69">
          <mxGeometry width="50" height="50" relative="1" as="geometry">
            <mxPoint x="260" y="780" as="sourcePoint" />
            <mxPoint x="310" y="730" as="targetPoint" />
          </mxGeometry>
        </mxCell>
      </root>
    </mxGraphModel>
  </diagram>
</mxfile>
